<!DOCTYPE svg PUBLIC "-//W3C//DTD SVG 20010904//EN" "http://www.w3.org/TR/2001/REC-SVG-20010904/DTD/svg10.dtd">
<svg version="1.0" xmlns="http://www.w3.org/2000/svg" width="339px" height="356px" viewBox="0 0 3390 3560" preserveAspectRatio="xMidYMid meet">
<g id="layer1" fill="rgb(230,230,230)" stroke="none">
 <path d="M1387 3474 c-4 -4 -7 -26 -7 -49 0 -31 6 -47 25 -65 l25 -23 0 -442 0 -442 -25 -23 c-26 -25 -33 -68 -14 -87 8 -8 8 -13 0 -17 -21 -13 -12 -77 14 -108 l25 -30 0 -437 0 -438 -25 -23 c-27 -25 -34 -77 -14 -97 8 -8 8 -13 0 -17 -23 -15 -12 -71 19 -101 l30 -29 0 -443 0 -443 -25 -16 c-29 -19 -35 -73 -11 -93 23 -19 917 -11 939 8 23 18 21 70 -2 95 -17 20 -19 50 -25 462 -6 432 -6 441 14 459 30 27 27 82 -5 97 l-24 11 24 19 c29 23 34 72 9 99 -14 15 -17 77 -25 460 -9 435 -8 443 11 464 26 27 26 67 0 90 -20 18 -20 18 2 29 29 15 37 70 13 96 -15 17 -18 69 -26 462 -8 433 -8 443 11 463 25 27 27 81 3 93 -21 11 -926 26 -936 16z m891 -59 c3 -3 -3 -14 -13 -25 -17 -18 -17 -43 -7 -486 9 -409 12 -468 27 -484 12 -13 13 -20 4 -25 -6 -4 -147 -9 -313 -11 -165 -3 -354 -6 -418 -8 -125 -3 -139 2 -98 39 19 18 20 31 20 497 0 466 -1 480 -19 485 -11 3 -22 12 -26 21 -5 14 36 15 416 9 232 -4 425 -9 427 -12z m-120 -1141 c120 -6 123 -7 106 -25 -15 -17 -16 -52 -6 -482 8 -359 13 -469 23 -486 12 -18 12 -23 0 -30 -12 -8 -829 -21 -840 -14 -3 2 5 13 17 26 22 23 22 25 22 500 l0 477 -25 16 c-14 9 -25 19 -25 23 0 7 553 4 728 -5z m131 -1150 c2 -2 -4 -13 -14 -24 -17 -19 -17 -43 -7 -485 9 -412 12 -468 27 -485 12 -13 13 -20 4 -26 -7 -4 -154 -9 -328 -11 -174 -2 -362 -5 -418 -6 -109 -4 -122 2 -83 38 19 18 20 31 20 497 l0 478 -25 10 c-14 5 -25 15 -25 21 0 9 101 10 422 5 233 -4 425 -9 427 -12z"/>
 <path fill="rgb(68,132,125)" d="M760 2524 c-139 -15 -303 -67 -351 -110 -8 -8 -19 -14 -23 -14 -15 0 -135 -101 -176 -147 -22 -26 -39 -53 -38 -61 2 -8 31 -29 65 -48 171 -92 413 -124 618 -82 73 15 193 66 246 105 26 18 52 33 58 33 19 0 173 159 169 176 -6 30 -151 98 -273 128 -62 15 -233 27 -295 20z m285 -75 c86 -20 207 -77 202 -94 -4 -11 -148 -135 -158 -135 -4 0 -32 -16 -64 -35 -143 -86 -355 -112 -558 -69 -77 16 -229 83 -221 96 11 18 153 134 180 148 16 8 41 22 56 33 76 51 266 89 403 80 44 -2 116 -13 160 -24z"/>
 <path fill="rgb(68,132,125)" d="M1245 2210 c-196 -58 -380 -258 -416 -452 -17 -90 -4 -123 44 -113 63 13 153 48 194 77 64 44 159 135 193 185 73 108 117 253 90 302 -13 25 -25 25 -105 1z m55 -74 c0 -40 -60 -164 -108 -225 -71 -87 -209 -184 -296 -205 -28 -7 -28 -7 -21 31 9 50 67 171 106 219 69 87 193 178 279 205 39 12 40 11 40 -25z"/>
 <path fill="rgb(68,132,125)" d="M2691 1484 c-94 -32 -109 -39 -148 -77 -47 -44 -43 -69 15 -104 71 -43 95 -52 189 -68 115 -20 192 -19 291 5 169 40 264 120 205 172 -30 26 -119 67 -180 83 -36 9 -102 15 -178 15 -102 0 -131 -4 -194 -26z m348 -40 c35 -8 86 -26 113 -41 45 -25 47 -27 32 -44 -9 -10 -53 -33 -98 -51 -78 -32 -86 -33 -211 -32 -136 1 -191 14 -273 64 l-34 21 24 18 c45 35 87 51 233 85 30 7 141 -3 214 -20z"/>
 <path fill="rgb(68,132,125)" d="M2408 1234 c-14 -13 -8 -47 22 -132 95 -269 322 -489 577 -557 73 -20 317 -32 327 -17 9 15 -28 143 -63 218 -42 90 -83 148 -165 232 -127 131 -250 206 -391 238 -79 17 -296 30 -307 18z m334 -82 c48 -17 111 -44 140 -60 108 -63 247 -202 311 -314 34 -59 88 -198 81 -209 -12 -20 -160 1 -289 40 -212 66 -440 296 -505 511 -10 32 -15 62 -11 66 15 16 188 -5 273 -34z"/>
 </g>

</svg>
